<?xml version="1.0" encoding="utf-8"?>
<!-- Generator: Adobe Illustrator 24.0.2, SVG Export Plug-In . SVG Version: 6.00 Build 0)  -->
<svg version="1.1" id="Layer_1" xmlns="http://www.w3.org/2000/svg" xmlns:xlink="http://www.w3.org/1999/xlink" x="0px" y="0px"
	 viewBox="0 0 92 90.1" style="enable-background:new 0 0 92 90.1;" xml:space="preserve">
<style type="text/css">
	.st0{fill:#0F0F0F;}
	.st1{font-family:'Algerian';}
	.st2{font-size:23.7566px;}
</style>
<title>Artboard 2</title>
<path class="st0" d="M50.7,44.5L91.6,37l-57.9-0.4l16.3,19.9l5.5,6.1l-2.2-7.8l-1.6-6.3L50.7,44.5z M60.6,39.5l-12.5,1.8l-2.2,0.1
	l0.6,2.2l1.3,4.3l-6.9-8.2L51,39.6l3.3,0.2L60.6,39.5z"/>
<path class="st0" d="M22.3,44.7L0.4,82.6L40,36.8l-27-0.5L4.5,36l7.8,3.8l6.1,2.8L22.3,44.7z M19.4,56L28,43.2l-6.4-3.1l11.2,0.1
	L26,48.4l-2.4,2.5L19.4,56z"/>
<text transform="matrix(1 0 0 1 5.1821 31.9688)" class="st1 st2">Movies</text>
</svg>
